<svg xmlns="http://www.w3.org/2000/svg" viewBox="0 0 64 64" role="img" aria-labelledby="title desc">
  <title id="title">EntityRIsk Analytics</title>
  <desc id="desc">Shield logo with connected analytics points</desc>
  <defs>
    <linearGradient id="shield" x1="12" y1="8" x2="52" y2="58" gradientUnits="userSpaceOnUse">
      <stop offset="0" stop-color="#38bdf8"/>
      <stop offset="0.55" stop-color="#2563eb"/>
      <stop offset="1" stop-color="#14b8a6"/>
    </linearGradient>
    <linearGradient id="line" x1="19" y1="42" x2="47" y2="22" gradientUnits="userSpaceOnUse">
      <stop offset="0" stop-color="#ecfeff"/>
      <stop offset="1" stop-color="#ffffff"/>
    </linearGradient>
  </defs>
  <rect width="64" height="64" rx="14" fill="#0f172a"/>
  <path fill="url(#shield)" d="M32 7 51 14v17c0 12.5-7.6 20.9-19 26-11.4-5.1-19-13.5-19-26V14l19-7Z"/>
  <path fill="#0f172a" fill-opacity=".2" d="M32 12.5 46 17.6v13.1c0 8.7-4.9 15.3-14 19.9-9.1-4.6-14-11.2-14-19.9V17.6l14-5.1Z"/>
  <path fill="none" stroke="url(#line)" stroke-width="4" stroke-linecap="round" stroke-linejoin="round" d="m21 40 8-8 7 5 8-13"/>
  <circle cx="21" cy="40" r="4.2" fill="#f8fafc"/>
  <circle cx="29" cy="32" r="4.2" fill="#f8fafc"/>
  <circle cx="36" cy="37" r="4.2" fill="#f8fafc"/>
  <circle cx="44" cy="24" r="4.2" fill="#f8fafc"/>
  <circle cx="21" cy="40" r="2" fill="#0f766e"/>
  <circle cx="29" cy="32" r="2" fill="#2563eb"/>
  <circle cx="36" cy="37" r="2" fill="#2563eb"/>
  <circle cx="44" cy="24" r="2" fill="#0891b2"/>
</svg>
